<?xml version="1.0" encoding="UTF-8"?>
<svg version="1.1" xmlns="http://www.w3.org/2000/svg" width="1200" height="675">
<path d="M0 0 C5.62297818 5.01877602 9.78569472 10.74523666 12 18 C12 18.99 12 19.98 12 21 C187.56 21 363.12 21 544 21 C544.33 19.02 544.66 17.04 545 15 C549.0806621 6.65511661 556.2023554 -0.37511097 564.6796875 -4.21484375 C575.58619276 -7.90542886 585.69512357 -7.54390916 596.1875 -2.9375 C604.46590383 1.55047409 610.25667519 9.01200161 613 18 C613 18.99 613 19.98 613 21 C655.24 21 697.48 21 741 21 C741 30.85182982 737.88104497 35.73400411 731.24609375 42.84375 C710.2763556 62.97469862 677.14953247 70.97523714 649.875 77.9375 C649.05193359 78.14914795 648.22886719 78.3607959 647.38085938 78.57885742 C643.50924776 79.53335109 640.0218383 80.26650736 636 80 C639.7378977 84.59340245 643.71692023 88.7270846 648.13473511 92.67214966 C656.74002486 100.46522796 664.88461913 108.72846278 673.09423828 116.93310547 C674.8923794 118.72660914 676.6907145 120.51991836 678.48922729 122.31304932 C683.34278646 127.15357834 688.19310537 131.99733974 693.0423646 136.84217596 C696.0779264 139.87495787 699.11421752 142.90700892 702.15063095 145.93893814 C710.58196588 154.35810166 719.01236804 162.77819673 727.4393177 171.2017498 C727.9764211 171.73863364 728.5135245 172.27551747 729.06690376 172.82867051 C729.6051624 173.36671087 730.14342103 173.90475122 730.69799054 174.45909584 C731.78840489 175.54906675 732.87882081 176.63903611 733.96923828 177.72900391 C734.51010228 178.26964647 735.05096627 178.81028904 735.60822009 179.36731471 C744.37678103 188.13192552 753.15208126 196.88975555 761.93029322 205.64469932 C770.97422617 214.66485543 780.01246115 223.69068872 789.04509532 232.7221595 C794.10420573 237.78035731 799.16565673 242.83616024 804.23343277 247.88567734 C808.99941179 252.63454261 813.75752032 257.39115822 818.51057816 262.15296173 C820.24854983 263.89170032 821.98905438 265.62791171 823.73236847 267.36129379 C832.06970579 275.65393552 840.1262291 283.84874041 847.06721306 293.36245918 C849.36464419 296.49760474 851.8696072 299.38512439 854.4609375 302.27734375 C856.71035223 304.79508967 858.85160593 307.39588597 861 310 C858 310 858 310 855.50390625 307.65625 C854.51927492 306.60806135 853.53909042 305.55568436 852.5625 304.5 C848.76674571 300.5343979 845.1863532 297.26674634 840.4375 294.4375 C832.35840359 289.40007133 826.10727752 282.35436062 819.515625 275.55859375 C816.09794533 272.05061102 812.55752402 268.78687193 808.83984375 265.60180664 C806.06473186 263.1857359 803.46387227 260.61268297 800.875 258 C800.35711914 257.48091064 799.83923828 256.96182129 799.30566406 256.42700195 C796.67247632 253.76681781 794.13392359 251.07295942 791.75 248.1875 C789.1991117 245.10425241 786.32236339 242.61032593 783.28125 240.01953125 C777.65025108 235.03455447 771.99360014 229.64881876 767.3125 223.75 C765.41787142 221.49692817 763.65729542 219.7686214 761.4375 217.875 C754.42270706 211.88513886 747.62672618 205.30058661 741.75 198.1875 C739.1991117 195.10425241 736.32236339 192.61032593 733.28125 190.01953125 C727.65025108 185.03455447 721.99360014 179.64881876 717.3125 173.75 C715.41787142 171.49692817 713.65729542 169.7686214 711.4375 167.875 C704.42270706 161.88513886 697.62672618 155.30058661 691.75 148.1875 C689.1991117 145.10425241 686.32236339 142.61032593 683.28125 140.01953125 C677.65025108 135.03455447 671.99360014 129.64881876 667.3125 123.75 C665.41787142 121.49692817 663.65729542 119.7686214 661.4375 117.875 C653.86547422 111.40932334 646.75468201 104.27628226 640.43359375 96.5859375 C638.12238076 94.02911877 635.48507568 91.8683367 632.83203125 89.67578125 C631 88 631 88 629.66723633 85.89233398 C628.18975647 83.80144017 628.18975647 83.80144017 625.96435547 83.71386719 C624.74063232 83.87870605 624.74063232 83.87870605 623.4921875 84.046875 C622.01637207 84.23926758 622.01637207 84.23926758 620.51074219 84.43554688 C613.91708386 85.49566774 607.3360916 86.60992577 600.76135254 87.78189087 C573.34196014 92.65046127 545.77378316 96.79259375 518 99 C517.86078125 100.26328125 517.7215625 101.5265625 517.578125 102.828125 C517.01442504 107.94318015 515.35041501 110.78462649 511.5 114.25 C507.20977406 117.25315816 503.09656574 117.51527779 498 117 C491.79501385 115.03508772 488.9925764 112.38737988 485.75 106.875 C485 105 485 105 485 102 C484.16267334 102.08040527 483.32534668 102.16081055 482.46264648 102.24365234 C479.17668705 102.55681359 475.89036236 102.86556231 472.60375977 103.171875 C471.21493605 103.30210168 469.82624947 103.43380423 468.43774414 103.56738281 C452.65232312 105.08352964 436.82811033 106.05655081 421 107 C419.76097931 107.0742218 418.52195862 107.1484436 417.24539185 107.22491455 C334.14922194 112.10010388 249.8910264 112.23020469 80.9375 103.375 C77.63432159 103.10928943 74.33091943 102.84665728 71.02734375 102.5859375 C69.94005226 102.49691666 69.94005226 102.49691666 68.83079529 102.40609741 C64.87398615 102.09430426 60.96741156 101.97814484 57 102 C57.92360762 102.92084224 58.84721523 103.84168447 59.79881096 104.79043102 C81.76238937 126.68892383 103.7181244 148.5952469 125.66433763 170.51114164 C128.37024337 173.21329562 131.07621469 175.91538394 133.78222656 178.61743164 C134.32090473 179.15532288 134.8595829 179.69321412 135.41458465 180.24740509 C144.11728099 188.93707588 152.82526856 197.62142544 161.53525089 206.3037925 C170.48381541 215.22422325 179.42660569 224.15041264 188.36415017 233.08188468 C193.87162464 238.58525919 199.38346252 244.08418549 204.90111013 249.57736073 C209.14383293 253.80223149 213.37846595 258.03512033 217.61026192 262.27093887 C219.33853721 263.99839358 221.06935574 265.72330847 222.80299568 267.44537926 C231.11845906 275.70809667 239.14426473 283.8753582 246.06422615 293.35891438 C248.36287961 296.49509715 250.86856629 299.38396261 253.4609375 302.27734375 C255.71035223 304.79508967 257.85160593 307.39588597 260 310 C257 310 257 310 254.50390625 307.65625 C253.51927492 306.60806135 252.53909042 305.55568436 251.5625 304.5 C247.76674571 300.5343979 244.1863532 297.26674634 239.4375 294.4375 C231.35840359 289.40007133 225.10727752 282.35436062 218.515625 275.55859375 C215.09794533 272.05061102 211.55752402 268.78687193 207.83984375 265.60180664 C205.06473186 263.1857359 202.46387227 260.61268297 199.875 258 C199.35711914 257.48091064 198.83923828 256.96182129 198.30566406 256.42700195 C195.67247632 253.76681781 193.13392359 251.07295942 190.75 248.1875 C188.1991117 245.10425241 185.32236339 242.61032593 182.28125 240.01953125 C176.65025108 235.03455447 170.99360014 229.64881876 166.3125 223.75 C164.41787142 221.49692817 162.65729542 219.7686214 160.4375 217.875 C153.42270706 211.88513886 146.62672618 205.30058661 140.75 198.1875 C138.1991117 195.10425241 135.32236339 192.61032593 132.28125 190.01953125 C126.65025108 185.03455447 120.99360014 179.64881876 116.3125 173.75 C114.41787142 171.49692817 112.65729542 169.7686214 110.4375 167.875 C103.42270706 161.88513886 96.62672618 155.30058661 90.75 148.1875 C88.1991117 145.10425241 85.32236339 142.61032593 82.28125 140.01953125 C76.65025108 135.03455447 70.99360014 129.64881876 66.3125 123.75 C63.88078596 120.85823196 61.26520938 118.58061432 58.3984375 116.13671875 C55.34939019 113.42038507 52.45263149 110.57118893 49.5625 107.6875 C48.76380493 106.89545166 48.76380493 106.89545166 47.94897461 106.08740234 C44.12418154 102.24836308 44.12418154 102.24836308 43 100 C40.22586755 99.51986912 37.52304331 99.16882363 34.7265625 98.88671875 C33.8692453 98.79237549 33.0119281 98.69803223 32.12863159 98.60083008 C30.27031825 98.39666145 28.41157992 98.19633335 26.55249023 97.99935913 C21.59739943 97.47150415 16.64654338 96.90648581 11.6953125 96.34375 C10.19457184 96.17391853 10.19457184 96.17391853 8.66351318 96.00065613 C-147.70899236 78.1969639 -147.70899236 78.1969639 -181.64453125 38.0546875 C-186.18197681 32.01347756 -187 28.66031285 -187 21 C-144.1 21 -101.2 21 -57 21 C-56.67 19.02 -56.34 17.04 -56 15 C-51.53507411 5.8693038 -43.57829138 -1.54975525 -34 -5 C-22.45566717 -8.49225115 -9.96685624 -7.00235541 0 0 Z M-41.59765625 9.9375 C-44.22723687 13.8049612 -45.26380702 16.25147366 -45 21 C-36.13616069 22.01396024 -36.13616069 22.01396024 -27.9609375 19.69921875 C-26.49643603 17.90525779 -26.49643603 17.90525779 -25 15 C-24.34 14.67 -23.68 14.34 -23 14 C-22.34 16.31 -21.68 18.62 -21 21 C-16.38 21 -11.76 21 -7 21 C-8.31764808 13.09411153 -9.9283958 8.97922258 -16.5625 4.125 C-26.05278434 1.01908876 -35.0809224 2.03456604 -41.59765625 9.9375 Z M559.40234375 9.9375 C556.77276313 13.8049612 555.73619298 16.25147366 556 21 C564.86383931 22.01396024 564.86383931 22.01396024 573.0390625 19.69921875 C574.50356397 17.90525779 574.50356397 17.90525779 576 15 C576.66 14.67 577.32 14.34 578 14 C578.66 16.31 579.32 18.62 580 21 C584.62 21 589.24 21 594 21 C592.68235192 13.09411153 591.0716042 8.97922258 584.4375 4.125 C574.94721566 1.01908876 565.9190776 2.03456604 559.40234375 9.9375 Z M505.18359375 101.4609375 C504.60738281 102.09257812 504.03117188 102.72421875 503.4375 103.375 C501.3176995 105.66948339 499.63565258 107.24289828 497 109 C501.98807071 110.08269462 501.98807071 110.08269462 506.8125 108.8125 C509.07101425 106.94115962 510.05384959 105.75243755 511 103 C511 102.01 511 101.02 511 100 C507.1309836 99.58217565 507.1309836 99.58217565 505.18359375 101.4609375 Z M493 101 C493.33 102.32 493.66 103.64 494 105 C494.66 103.68 495.32 102.36 496 101 C495.01 101 494.02 101 493 101 Z " fill="#231F20" transform="translate(323,271)"/>
<path d="M0 0 C2.98918766 1.3533465 5.16362575 2.89710383 7.5625 5.125 C10.65267544 7.90672909 13.83055683 10.32398878 17.25 12.6875 C22.20022897 16.21651205 26.39657294 20.15147556 30.58886719 24.52416992 C33.18577764 27.22723478 35.84390973 29.76359368 38.69300079 32.20184612 C42.94485589 35.90411184 46.95063229 39.8079988 50.93151855 43.79780579 C51.68816661 44.55218829 52.44481467 45.30657079 53.22439146 46.08381337 C55.73985373 48.59298412 58.25176772 51.10567585 60.76367188 53.6184082 C62.57430981 55.42605167 64.38515195 57.23349061 66.19618225 59.04074097 C70.59270559 63.42936459 74.98685093 67.82035633 79.37970555 72.21265189 C82.9528194 75.78528911 86.52672487 79.35713252 90.10118103 82.92842674 C100.25312058 93.07156965 110.40297126 103.21679618 120.55013782 113.364714 C121.09610699 113.91072313 121.64207615 114.45673225 122.20458984 115.01928711 C122.75123108 115.56596923 123.29787232 116.11265134 123.86107844 116.67589959 C132.71993066 125.53515825 141.58376133 134.3894172 150.44986218 143.24142108 C159.5708874 152.3480592 168.6881548 161.45844476 177.80155802 170.57271069 C182.91115999 175.68264378 188.02227104 180.79104549 193.13743591 185.89541054 C197.94867144 190.69655222 202.75465868 195.50288742 207.55721855 200.31270981 C209.31625472 202.07278915 211.07698612 203.83117623 212.839571 205.5877018 C229.4928316 222.18743326 229.4928316 222.18743326 236 231 C236.81210937 231.99773437 237.62421875 232.99546875 238.4609375 234.0234375 C239.09257813 234.79945313 239.72421875 235.57546875 240.375 236.375 C241.02210938 237.16648438 241.66921875 237.95796875 242.3359375 238.7734375 C243.84471135 240.79221941 244.96481091 242.71003626 246 245 C242.73493056 243.55780565 240.46952764 241.74905825 237.875 239.3125 C234.70190313 236.42076148 231.50290299 233.88975393 227.9375 231.5 C223.7451024 228.65306954 220.30358893 225.5004854 216.80859375 221.84375 C215.21178655 220.21590335 213.59550807 218.79051786 211.8125 217.375 C209.32074759 215.27085352 207.41598382 213.11310596 205.38671875 210.578125 C203.8523081 208.83192245 202.20909261 207.37994052 200.4375 205.875 C196.71112787 202.69516245 193.21576649 199.33284292 189.75 195.875 C189.24267334 195.37210449 188.73534668 194.86920898 188.21264648 194.35107422 C185.25241645 191.37959971 182.61627624 188.27172228 180 185 C178.88526692 183.96544494 177.7387426 182.96404739 176.5625 182 C172.63883031 178.64422987 168.96498701 175.08224759 165.3125 171.4375 C164.76601807 170.89544922 164.21953613 170.35339844 163.65649414 169.79492188 C161.08710516 167.21654765 158.63254309 164.61214337 156.328125 161.79296875 C154.44269418 159.53108446 152.69823586 157.72607231 150.4375 155.875 C146.71112787 152.69516245 143.21576649 149.33284292 139.75 145.875 C139.24267334 145.37210449 138.73534668 144.86920898 138.21264648 144.35107422 C135.25241645 141.37959971 132.61627624 138.27172228 130 135 C128.88526692 133.96544494 127.7387426 132.96404739 126.5625 132 C122.63883031 128.64422987 118.96498701 125.08224759 115.3125 121.4375 C114.76601807 120.89544922 114.21953613 120.35339844 113.65649414 119.79492188 C111.08710516 117.21654765 108.63254309 114.61214337 106.328125 111.79296875 C104.44269418 109.53108446 102.69823586 107.72607231 100.4375 105.875 C96.71112787 102.69516245 93.21576649 99.33284292 89.75 95.875 C89.24267334 95.37210449 88.73534668 94.86920898 88.21264648 94.35107422 C85.25241645 91.37959971 82.61627624 88.27172228 80 85 C78.88526692 83.96544494 77.7387426 82.96404739 76.5625 82 C72.63883031 78.64422987 68.96498701 75.08224759 65.3125 71.4375 C64.76601807 70.89544922 64.21953613 70.35339844 63.65649414 69.79492188 C61.08710516 67.21654765 58.63254309 64.61214337 56.328125 61.79296875 C54.44269418 59.53108446 52.69823586 57.72607231 50.4375 55.875 C46.71112787 52.69516245 43.21576649 49.33284292 39.75 45.875 C39.24267334 45.37210449 38.73534668 44.86920898 38.21264648 44.35107422 C35.96563672 42.09552916 33.85774332 39.82172236 31.87109375 37.33203125 C30.14067505 35.17532986 28.44660704 33.55289337 26.3125 31.8125 C19.54586551 26.00531368 13.72894977 19.60568596 9.2578125 11.8828125 C7.36290808 9.04634067 4.96028449 6.83756471 2.453125 4.54296875 C1 3 1 3 0 0 Z " fill="#FFFFFF" transform="translate(608,8)"/>
<path d="M0 0 C2.98918766 1.3533465 5.16362575 2.89710383 7.5625 5.125 C10.65267544 7.90672909 13.83055683 10.32398878 17.25 12.6875 C22.20022897 16.21651205 26.39657294 20.15147556 30.58886719 24.52416992 C33.18577764 27.22723478 35.84390973 29.76359368 38.69300079 32.20184612 C42.94485589 35.90411184 46.95063229 39.8079988 50.93151855 43.79780579 C51.68816661 44.55218829 52.44481467 45.30657079 53.22439146 46.08381337 C55.73985373 48.59298412 58.25176772 51.10567585 60.76367188 53.6184082 C62.57430981 55.42605167 64.38515195 57.23349061 66.19618225 59.04074097 C70.59270559 63.42936459 74.98685093 67.82035633 79.37970555 72.21265189 C82.9528194 75.78528911 86.52672487 79.35713252 90.10118103 82.92842674 C100.25312058 93.07156965 110.40297126 103.21679618 120.55013782 113.364714 C121.09610699 113.91072313 121.64207615 114.45673225 122.20458984 115.01928711 C122.75123108 115.56596923 123.29787232 116.11265134 123.86107844 116.67589959 C132.71993066 125.53515825 141.58376133 134.3894172 150.44986218 143.24142108 C159.5708874 152.3480592 168.6881548 161.45844476 177.80155802 170.57271069 C182.91115999 175.68264378 188.02227104 180.79104549 193.13743591 185.89541054 C197.94867144 190.69655222 202.75465868 195.50288742 207.55721855 200.31270981 C209.31625472 202.07278915 211.07698612 203.83117623 212.839571 205.5877018 C229.4928316 222.18743326 229.4928316 222.18743326 236 231 C236.81210938 231.99773437 237.62421875 232.99546875 238.4609375 234.0234375 C239.09257812 234.79945313 239.72421875 235.57546875 240.375 236.375 C241.02210938 237.16648438 241.66921875 237.95796875 242.3359375 238.7734375 C243.84471135 240.79221941 244.96481091 242.71003626 246 245 C242.73493056 243.55780565 240.46952764 241.74905825 237.875 239.3125 C234.70190313 236.42076148 231.50290299 233.88975393 227.9375 231.5 C223.7451024 228.65306954 220.30358893 225.5004854 216.80859375 221.84375 C215.21178655 220.21590335 213.59550807 218.79051786 211.8125 217.375 C209.32074759 215.27085352 207.41598382 213.11310596 205.38671875 210.578125 C203.8523081 208.83192245 202.20909261 207.37994052 200.4375 205.875 C196.71112787 202.69516245 193.21576649 199.33284292 189.75 195.875 C189.24267334 195.37210449 188.73534668 194.86920898 188.21264648 194.35107422 C185.25241645 191.37959971 182.61627624 188.27172228 180 185 C178.88526692 183.96544494 177.7387426 182.96404739 176.5625 182 C172.63883031 178.64422987 168.96498701 175.08224759 165.3125 171.4375 C164.76601807 170.89544922 164.21953613 170.35339844 163.65649414 169.79492188 C161.08710516 167.21654765 158.63254309 164.61214337 156.328125 161.79296875 C154.44269418 159.53108446 152.69823586 157.72607231 150.4375 155.875 C146.71112787 152.69516245 143.21576649 149.33284292 139.75 145.875 C139.24267334 145.37210449 138.73534668 144.86920898 138.21264648 144.35107422 C135.25241645 141.37959971 132.61627624 138.27172228 130 135 C128.88526692 133.96544494 127.7387426 132.96404739 126.5625 132 C122.63883031 128.64422987 118.96498701 125.08224759 115.3125 121.4375 C114.76601807 120.89544922 114.21953613 120.35339844 113.65649414 119.79492188 C111.08710516 117.21654765 108.63254309 114.61214337 106.328125 111.79296875 C104.44269418 109.53108446 102.69823586 107.72607231 100.4375 105.875 C96.71112787 102.69516245 93.21576649 99.33284292 89.75 95.875 C89.24267334 95.37210449 88.73534668 94.86920898 88.21264648 94.35107422 C85.25241645 91.37959971 82.61627624 88.27172228 80 85 C78.88526692 83.96544494 77.7387426 82.96404739 76.5625 82 C72.63883031 78.64422987 68.96498701 75.08224759 65.3125 71.4375 C64.76601807 70.89544922 64.21953613 70.35339844 63.65649414 69.79492188 C61.08710516 67.21654765 58.63254309 64.61214337 56.328125 61.79296875 C54.44269418 59.53108446 52.69823586 57.72607231 50.4375 55.875 C46.71112787 52.69516245 43.21576649 49.33284292 39.75 45.875 C39.24267334 45.37210449 38.73534668 44.86920898 38.21264648 44.35107422 C35.96563672 42.09552916 33.85774332 39.82172236 31.87109375 37.33203125 C30.14067505 35.17532986 28.44660704 33.55289337 26.3125 31.8125 C19.54586551 26.00531368 13.72894977 19.60568596 9.2578125 11.8828125 C7.36290808 9.04634067 4.96028449 6.83756471 2.453125 4.54296875 C1 3 1 3 0 0 Z " fill="#FFFFFF" transform="translate(7,8)"/>
<path d="M0 0 C6.92710466 1.42472365 10.84006101 4.25690918 15.56640625 9.453125 C17.53472579 11.51306776 19.49649918 13.32431124 21.6548481 15.1707058 C25.92751767 18.88947959 29.95441203 22.80897105 33.95602417 26.81558228 C34.71534465 27.57193163 35.47466513 28.32828099 36.25699532 29.10755002 C38.781605 31.62354033 41.30267807 34.1430433 43.82373047 36.66259766 C45.6409835 38.47521777 47.45843248 40.28764146 49.27606201 42.09988403 C54.20034725 47.01065071 59.12091066 51.92513511 64.04064703 56.84045839 C67.11839616 59.91543471 70.19687768 62.9896771 73.27548599 66.06379318 C81.8164675 74.59259165 90.35650786 83.12233004 98.89309502 91.65552711 C99.43827412 92.20048665 99.98345323 92.74544619 100.54515291 93.30691966 C101.36475431 94.12619364 101.36475431 94.12619364 102.20091331 94.96201861 C103.30793154 96.06859339 104.41495132 97.17516661 105.52197266 98.28173828 C106.3456335 99.10506698 106.3456335 99.10506698 107.18593396 99.94502859 C116.07761081 108.83275988 124.97601985 117.71371795 133.877362 126.5917681 C143.03868974 135.72931872 152.19431944 144.87254684 161.34434807 154.02141225 C166.47282334 159.14897445 171.60364485 164.27413686 176.74077988 169.39302444 C181.57564974 174.21077948 186.40265657 179.0362948 191.22460175 183.86698532 C192.98837086 185.63152149 194.75467387 187.39352934 196.52378464 189.15270996 C204.93187361 197.51639071 213.07919538 205.77303157 220.07589912 215.37114525 C222.36921055 218.50444388 224.87224833 221.38807219 227.4609375 224.27734375 C229.71035223 226.79508967 231.85160593 229.39588597 234 232 C231 232 231 232 228.50390625 229.65625 C227.51927492 228.60806135 226.53909042 227.55568436 225.5625 226.5 C221.76674571 222.5343979 218.1863532 219.26674634 213.4375 216.4375 C205.35840359 211.40007133 199.10727752 204.35436062 192.515625 197.55859375 C189.09794533 194.05061102 185.55752402 190.78687193 181.83984375 187.60180664 C179.06473186 185.1857359 176.46387227 182.61268297 173.875 180 C173.35711914 179.48091064 172.83923828 178.96182129 172.30566406 178.42700195 C169.67247632 175.76681781 167.13392359 173.07295942 164.75 170.1875 C162.1991117 167.10425241 159.32236339 164.61032593 156.28125 162.01953125 C150.65025108 157.03455447 144.99360014 151.64881876 140.3125 145.75 C138.41787142 143.49692817 136.65729542 141.7686214 134.4375 139.875 C127.42270706 133.88513886 120.62672618 127.30058661 114.75 120.1875 C112.1991117 117.10425241 109.32236339 114.61032593 106.28125 112.01953125 C100.65025108 107.03455447 94.99360014 101.64881876 90.3125 95.75 C88.41787142 93.49692817 86.65729542 91.7686214 84.4375 89.875 C77.42270706 83.88513886 70.62672618 77.30058661 64.75 70.1875 C62.1991117 67.10425241 59.32236339 64.61032593 56.28125 62.01953125 C50.65025108 57.03455447 44.99360014 51.64881876 40.3125 45.75 C38.41787142 43.49692817 36.65729542 41.7686214 34.4375 39.875 C26.86468476 33.40864922 19.74446142 26.27542339 13.4296875 18.578125 C11.71152918 16.68157866 9.83153539 15.08586315 7.875 13.4375 C4.47772104 10.53484403 2.10718665 7.95097497 0 4 C0 2.68 0 1.36 0 0 Z " fill="#FEFEFE" transform="translate(950,349)"/>
<path d="M0 0 C2.49361571 1.20381448 4.68143083 2.45428722 7 4 C7.89587452 4.22558688 8.79174904 4.45117376 9.71477127 4.68359661 C14.33084758 6.53327558 17.10679611 9.55703764 20.56365967 13.06245422 C21.30493709 13.79819725 22.04621451 14.53394027 22.80995488 15.29197854 C25.29273982 17.76114516 27.76096944 20.24436413 30.22949219 22.7277832 C32.00639645 24.50090452 33.78415842 26.27316665 35.56271362 28.04463196 C39.89238262 32.36177167 44.212616 36.68816051 48.52849099 41.01908491 C53.56318342 46.07066065 58.60791789 51.11215816 63.65292707 56.15342691 C72.66443367 65.15905374 81.66587989 74.17467111 90.66210938 83.19555664 C99.3717059 91.92902068 108.08961055 100.65408307 116.81640625 109.37036133 C126.32989679 118.87240673 135.838566 128.37923017 145.33913922 137.8941924 C146.35533462 138.91191349 147.37153268 139.92963192 148.38773346 140.94734764 C148.88762448 141.44799648 149.3875155 141.94864531 149.90255474 142.46446532 C153.40593083 145.97256076 156.91256265 149.47738101 160.42043304 152.98098183 C165.15875638 157.7138232 169.88879585 162.45480142 174.61362076 167.20112419 C176.34194474 168.93497753 178.07276982 170.66634221 179.80636978 172.39492035 C188.11224889 180.6797675 196.13654146 188.87264168 203.06410599 198.36102581 C205.36358439 201.49563137 207.86906059 204.3845143 210.4609375 207.27734375 C212.71035223 209.79508967 214.85160593 212.39588597 217 215 C214 215 214 215 211.50390625 212.65625 C210.51927492 211.60806135 209.53909042 210.55568436 208.5625 209.5 C204.76674571 205.5343979 201.1863532 202.26674634 196.4375 199.4375 C188.35840359 194.40007133 182.10727752 187.35436062 175.515625 180.55859375 C172.09794533 177.05061102 168.55752402 173.78687193 164.83984375 170.60180664 C162.06473186 168.1857359 159.46387227 165.61268297 156.875 163 C156.35711914 162.48091064 155.83923828 161.96182129 155.30566406 161.42700195 C152.67247632 158.76681781 150.13392359 156.07295942 147.75 153.1875 C145.1991117 150.10425241 142.32236339 147.61032593 139.28125 145.01953125 C133.65025108 140.03455447 127.99360014 134.64881876 123.3125 128.75 C121.41787142 126.49692817 119.65729542 124.7686214 117.4375 122.875 C110.42270706 116.88513886 103.62672618 110.30058661 97.75 103.1875 C95.1991117 100.10425241 92.32236339 97.61032593 89.28125 95.01953125 C83.65025108 90.03455447 77.99360014 84.64881876 73.3125 78.75 C71.41787142 76.49692817 69.65729542 74.7686214 67.4375 72.875 C60.42270706 66.88513886 53.62672618 60.30058661 47.75 53.1875 C45.1991117 50.10425241 42.32236339 47.61032593 39.28125 45.01953125 C33.65025108 40.03455447 27.99360014 34.64881876 23.3125 28.75 C21.41787142 26.49692817 19.65729542 24.7686214 17.4375 22.875 C13.66884396 19.64162332 10.05786744 16.27440727 6.5 12.8125 C5.95915771 12.30122559 5.41831543 11.78995117 4.86108398 11.26318359 C3.34375 9.76953125 3.34375 9.76953125 1 7 C1 5.68 1 4.36 1 3 C0.67 2.01 0.34 1.02 0 0 Z " fill="#FEFEFE" transform="translate(366,366)"/>
<path d="M0 0 C3.07807591 2.74732945 5.58936641 5.65621792 8 9 C8.68449219 9.94746094 8.68449219 9.94746094 9.3828125 10.9140625 C14.14420056 19.27146392 13.35493196 31.60910049 11.08203125 40.65234375 C7.20051002 50.61365876 1.5467732 55.96881787 -7.21875 61.8125 C-10.65872544 63.28125356 -12.43622782 62.99590346 -16 62 C-20.23877646 59.62628518 -23.51214728 57.2102123 -26 53 C-26.61150461 50.18822177 -26.64618251 47.80774878 -26 45 C-23.4656127 41.59441707 -20.61635622 39.75594617 -17 37.6875 C-12.55405125 34.99298561 -9.9372603 31.83418196 -8 27 C-6.86557391 21.38240928 -8.3134141 15.97871277 -11 11 C-14.44513135 6.93651174 -17.39989863 4.3528709 -22.734375 3.62890625 C-28.84769884 3.49428642 -33.36319708 3.75870698 -38.3828125 7.4453125 C-42.54674675 11.44832175 -44.39708369 16.52336927 -46 22 C-49.63 22 -53.26 22 -57 22 C-56.64341741 13.62030912 -52.1708532 7.75636281 -46.125 2.1875 C-32.80929706 -8.68657121 -14.39076305 -10.11043353 0 0 Z " fill="#6B6869" transform="translate(924,271)"/>
<path d="M0 0 C3.07807591 2.74732945 5.58936641 5.65621792 8 9 C8.68449219 9.94746094 8.68449219 9.94746094 9.3828125 10.9140625 C14.04412891 19.09581368 13.26442517 31.23194811 11.3046875 40.171875 C10.39458084 42.63451656 9.35941765 44.75696087 8 47 C7.5875 47.70125 7.175 48.4025 6.75 49.125 C2.55337009 55.41994487 -3.67338896 60.8325896 -11.0546875 62.82421875 C-15.78467042 63.10651216 -18.40236496 60.83983532 -22 58 C-25.07548547 55.15517594 -26.26150665 53.11357578 -26.5625 49 C-26.37641177 45.80048307 -26.00971888 45.01305974 -24 42.3125 C-21.67229725 40.51822913 -19.52713887 39.13294685 -17 37.6875 C-12.55405125 34.99298561 -9.9372603 31.83418196 -8 27 C-6.86557391 21.38240928 -8.3134141 15.97871277 -11 11 C-14.44513135 6.93651174 -17.39989863 4.3528709 -22.734375 3.62890625 C-28.84769884 3.49428642 -33.36319708 3.75870698 -38.3828125 7.4453125 C-42.54674675 11.44832175 -44.39708369 16.52336927 -46 22 C-49.63 22 -53.26 22 -57 22 C-56.64341741 13.62030912 -52.1708532 7.75636281 -46.125 2.1875 C-32.80929706 -8.68657121 -14.39076305 -10.11043353 0 0 Z " fill="#676465" transform="translate(323,271)"/>
<path d="M0 0 C0.66 0 1.32 0 2 0 C3.4606285 2.64738916 4 3.89448334 4 7 C8.62 7 13.24 7 18 7 C18 13.671475 16.92127467 15.96607715 13 21 C10.29845635 23.55935714 7.47433926 25.32200213 4.25 27.125 C0.95685543 28.62690809 0.95685543 28.62690809 0 31 C-0.63331685 36.24748247 -0.41175294 39.00391477 2.75 43.3125 C4.91077877 46.00256044 7.18350873 48.01008769 10 50 C4.67769178 52.66115411 -4.14932076 51.57558053 -9.86328125 50.421875 C-18.67240723 47.3309536 -25.84734565 40.90995855 -30.0625 32.625 C-31.85167209 28.61368891 -33.1289992 25.18888788 -33.09765625 20.76953125 C-33.09282227 19.56586914 -33.09282227 19.56586914 -33.08789062 18.33789062 C-33.07951172 17.50451172 -33.07113281 16.67113281 -33.0625 15.8125 C-33.05798828 14.96751953 -33.05347656 14.12253906 -33.04882812 13.25195312 C-33.03705403 11.16793845 -33.0191189 9.08396023 -33 7 C-32.319375 7.01160156 -31.63875 7.02320313 -30.9375 7.03515625 C-27.62368667 7.06600292 -24.31375575 7.03832946 -21 7 C-20.3208252 6.9995166 -19.64165039 6.9990332 -18.94189453 6.99853516 C-16.81368338 6.98826811 -14.68981701 6.9356472 -12.5625 6.875 C-10.58443359 6.84019531 -10.58443359 6.84019531 -8.56640625 6.8046875 C-3.7590173 5.71999733 -2.84902607 3.89866726 0 0 Z " fill="#686666" transform="translate(899,285)"/>
<path d="M0 0 C0.66 0 1.32 0 2 0 C3.4606285 2.64738916 4 3.89448334 4 7 C8.62 7 13.24 7 18 7 C18 13.671475 16.92127467 15.96607715 13 21 C10.29845635 23.55935714 7.47433926 25.32200213 4.25 27.125 C0.95685543 28.62690809 0.95685543 28.62690809 0 31 C-0.63331685 36.24748247 -0.41175294 39.00391477 2.75 43.3125 C4.91077877 46.00256044 7.18350873 48.01008769 10 50 C4.67769178 52.66115411 -4.14932076 51.57558053 -9.86328125 50.421875 C-18.67240723 47.3309536 -25.84734565 40.90995855 -30.0625 32.625 C-31.85167209 28.61368891 -33.1289992 25.18888788 -33.09765625 20.76953125 C-33.09282227 19.56586914 -33.09282227 19.56586914 -33.08789062 18.33789062 C-33.07951172 17.50451172 -33.07113281 16.67113281 -33.0625 15.8125 C-33.05798828 14.96751953 -33.05347656 14.12253906 -33.04882812 13.25195312 C-33.03705403 11.16793845 -33.0191189 9.08396023 -33 7 C-32.319375 7.01160156 -31.63875 7.02320313 -30.9375 7.03515625 C-27.62368667 7.06600292 -24.31375575 7.03832946 -21 7 C-20.3208252 6.9995166 -19.64165039 6.9990332 -18.94189453 6.99853516 C-16.81368338 6.98826811 -14.68981701 6.9356472 -12.5625 6.875 C-10.58443359 6.84019531 -10.58443359 6.84019531 -8.56640625 6.8046875 C-3.7590173 5.71999733 -2.84902607 3.89866726 0 0 Z " fill="#6A6768" transform="translate(298,285)"/>
<path d="M0 0 C2.475 1.98 2.475 1.98 5 4 C3.62845496 6.95409701 2.01136276 9.44008376 0 12 C0.88884888 12.40532959 0.88884888 12.40532959 1.7956543 12.81884766 C5.36017704 14.7288223 7.95733696 17.54785928 10.8125 20.375 C11.42287109 20.9525 12.03324219 21.53 12.66210938 22.125 C13.5196582 22.97191406 13.5196582 22.97191406 14.39453125 23.8359375 C14.91893799 24.34688965 15.44334473 24.8578418 15.98364258 25.38427734 C17 27 17 27 16.7878418 29.07275391 C16 31 16 31 14 33 C10.45600743 32.69371213 8.74942859 31.10501726 6.328125 28.62109375 C5.66425781 27.94755859 5.00039063 27.27402344 4.31640625 26.58007812 C3.29353516 25.51950195 3.29353516 25.51950195 2.25 24.4375 C1.55261719 23.72658203 0.85523438 23.01566406 0.13671875 22.28320312 C-1.5824658 20.52869286 -3.29425872 18.76756648 -5 17 C-5.78375 17.66 -6.5675 18.32 -7.375 19 C-10 21 -10 21 -12 21 C-8.55876912 25.02697231 -5.11561948 28.93590604 -1.25 32.5625 C2.45460178 36.25875808 4.87174121 39.81583603 5.08984375 45.23046875 C4.74138552 50.56456006 3.30651951 53.84018514 0 58 C-3.16115776 56.63016497 -3.9927092 56.0109362 -6 53 C-6.70382812 53.4846875 -7.40765625 53.969375 -8.1328125 54.46875 C-12.93419167 57.0329743 -17.69574725 56.74470303 -23 56 C-27.11045822 54.31550399 -29.37020796 51.87358251 -31.9375 48.3125 C-33.36452645 43.86353517 -33.89344925 39.61498197 -33 35 C-30.04614648 29.99703657 -26.39338809 26.12864506 -22.265625 22.0703125 C-21.62759949 21.43511688 -20.98957397 20.79992126 -20.33221436 20.14547729 C-18.30948828 18.13387395 -16.27989279 16.12936863 -14.25 14.125 C-12.87063265 12.75567266 -11.49172152 11.38588559 -10.11328125 10.015625 C-6.74744234 6.67174149 -3.3754281 3.33420247 0 0 Z M-17 27 C-18.31554021 28.28857013 -19.62734097 29.58095891 -20.9375 30.875 C-21.66839844 31.59429687 -22.39929688 32.31359375 -23.15234375 33.0546875 C-25.44115578 35.46447268 -25.94376834 36.49391504 -26.3125 39.8125 C-25.92835642 43.7307645 -24.70743683 45.21293267 -22 48 C-18.72555456 49.63722272 -16.64878324 49.46333755 -13 49 C-9.75346508 46.93870798 -6.87122903 44.55220358 -4 42 C-5.52322427 38.37406397 -7.69353539 36.09945753 -10.5 33.375 C-11.2940625 32.59898437 -12.088125 31.82296875 -12.90625 31.0234375 C-13.5971875 30.35570312 -14.288125 29.68796875 -15 29 C-15.66 28.34 -16.32 27.68 -17 27 Z " fill="#FFFFFF" transform="translate(760,413)"/>
<path d="M0 0 C2.475 1.98 2.475 1.98 5 4 C3.62845496 6.95409701 2.01136276 9.44008376 0 12 C0.88884888 12.40532959 0.88884888 12.40532959 1.7956543 12.81884766 C5.36017704 14.7288223 7.95733696 17.54785928 10.8125 20.375 C11.42287109 20.9525 12.03324219 21.53 12.66210938 22.125 C13.5196582 22.97191406 13.5196582 22.97191406 14.39453125 23.8359375 C14.91893799 24.34688965 15.44334473 24.8578418 15.98364258 25.38427734 C17 27 17 27 16.7878418 29.07275391 C16 31 16 31 14 33 C10.45600743 32.69371213 8.74942859 31.10501726 6.328125 28.62109375 C5.66425781 27.94755859 5.00039062 27.27402344 4.31640625 26.58007812 C3.29353516 25.51950195 3.29353516 25.51950195 2.25 24.4375 C1.55261719 23.72658203 0.85523438 23.01566406 0.13671875 22.28320312 C-1.5824658 20.52869286 -3.29425872 18.76756648 -5 17 C-5.78375 17.66 -6.5675 18.32 -7.375 19 C-10 21 -10 21 -12 21 C-8.55876912 25.02697231 -5.11561948 28.93590604 -1.25 32.5625 C2.45460178 36.25875808 4.87174121 39.81583603 5.08984375 45.23046875 C4.74138552 50.56456006 3.30651951 53.84018514 0 58 C-3.16115776 56.63016497 -3.9927092 56.0109362 -6 53 C-6.70382813 53.4846875 -7.40765625 53.969375 -8.1328125 54.46875 C-12.93419167 57.0329743 -17.69574725 56.74470303 -23 56 C-27.11045822 54.31550399 -29.37020796 51.87358251 -31.9375 48.3125 C-33.36452645 43.86353517 -33.89344925 39.61498197 -33 35 C-30.04614648 29.99703657 -26.39338809 26.12864506 -22.265625 22.0703125 C-21.62759949 21.43511688 -20.98957397 20.79992126 -20.33221436 20.14547729 C-18.30948828 18.13387395 -16.27989279 16.12936863 -14.25 14.125 C-12.87063265 12.75567266 -11.49172152 11.38588559 -10.11328125 10.015625 C-6.74744234 6.67174149 -3.3754281 3.33420247 0 0 Z M-17 27 C-18.31554021 28.28857013 -19.62734097 29.58095891 -20.9375 30.875 C-21.66839844 31.59429687 -22.39929688 32.31359375 -23.15234375 33.0546875 C-25.44115578 35.46447268 -25.94376834 36.49391504 -26.3125 39.8125 C-25.92835642 43.7307645 -24.70743683 45.21293267 -22 48 C-18.72555456 49.63722272 -16.64878324 49.46333755 -13 49 C-9.75346508 46.93870798 -6.87122903 44.55220358 -4 42 C-5.52322427 38.37406397 -7.69353539 36.09945753 -10.5 33.375 C-11.2940625 32.59898437 -12.088125 31.82296875 -12.90625 31.0234375 C-13.5971875 30.35570312 -14.288125 29.68796875 -15 29 C-15.66 28.34 -16.32 27.68 -17 27 Z " fill="#FFFFFF" transform="translate(159,413)"/>
<path d="M0 0 C5.58386819 4.98386849 9.89227645 10.74776701 12 18 C12 19.32 12 20.64 12 22 C5.73 22 -0.54 22 -7 22 C-7.4125 20.453125 -7.825 18.90625 -8.25 17.3125 C-9.91448699 11.83130564 -11.80484151 8.59148991 -16.5 5.1875 C-22.34387163 3.20475784 -28.53242017 2.73753161 -34.4140625 4.87890625 C-41.27764574 8.77341135 -43.82515747 14.56928802 -46 22 C-49.63 22 -53.26 22 -57 22 C-56.64341741 13.62030912 -52.1708532 7.75636281 -46.125 2.1875 C-32.80929706 -8.68657121 -14.39076305 -10.11043353 0 0 Z " fill="#FDFDFD" transform="translate(924,271)"/>
<path d="M0 0 C5.58386819 4.98386849 9.89227645 10.74776701 12 18 C12 19.32 12 20.64 12 22 C5.73 22 -0.54 22 -7 22 C-7.4125 20.453125 -7.825 18.90625 -8.25 17.3125 C-9.91448699 11.83130564 -11.80484151 8.59148991 -16.5 5.1875 C-22.34387163 3.20475784 -28.53242017 2.73753161 -34.4140625 4.87890625 C-41.27764574 8.77341135 -43.82515747 14.56928802 -46 22 C-49.63 22 -53.26 22 -57 22 C-56.64341741 13.62030912 -52.1708532 7.75636281 -46.125 2.1875 C-32.80929706 -8.68657121 -14.39076305 -10.11043353 0 0 Z " fill="#FDFDFD" transform="translate(323,271)"/>
<path d="M0 0 C2.70637196 1.00835867 3.84355188 1.95704915 6 4 C6.80200195 5.94506836 6.80200195 5.94506836 7 8 C5.13141073 10.37955486 3.31051742 12.43469561 1.1875 14.5625 C0.07520877 15.70807037 -1.03552739 16.85515315 -2.14453125 18.00390625 C-2.64315674 18.50736572 -3.14178223 19.0108252 -3.65551758 19.52954102 C-5.22129348 21.1671867 -5.22129348 21.1671867 -7 24 C-2.89722708 23.54413634 -0.61491759 23.25769062 2 20 C2.92299146 17.80498679 2.92299146 17.80498679 3.5625 15.4375 C4.79166667 11.20833333 4.79166667 11.20833333 7 9 C7.99 9 8.98 9 10 9 C11.08130696 15.47481394 11.55113006 20.15781829 8 26 C4.17294211 30.014761 0.84885483 31.87674301 -4.75 32.25 C-9.05215944 32.17882457 -12.21054797 31.11334825 -16 29 C-18.3125 26.5625 -18.3125 26.5625 -20 24 C-20.4125 23.38125 -20.825 22.7625 -21.25 22.125 C-22.83201327 17.64262907 -22.26003347 13.83788562 -20.875 9.375 C-16.06219559 0.71195207 -9.42189429 -0.96872998 0 0 Z M-14 16 C-13.67 17.32 -13.34 18.64 -13 20 C-12.34 18.68 -11.68 17.36 -11 16 C-11.99 16 -12.98 16 -14 16 Z " fill="#FCFCFC" transform="translate(830,356)"/>
<path d="M0 0 C1.7074998 1.28062485 3.37373596 2.61767557 5 4 C5 4.66 5 5.32 5 6 C6.5507907 7.56864082 6.5507907 7.56864082 8.5625 9.1875 C21.5554786 20.28807319 21.5554786 20.28807319 22.3125 28.3125 C21.96207075 32.44756519 21.30589608 36.47232317 19 40 C17 40.80859375 17 40.80859375 15 41 C13.25 39.6875 13.25 39.6875 12 38 C12 37.34 12 36.68 12 36 C11.50371094 36.28875 11.00742188 36.5775 10.49609375 36.875 C5.81344671 39.43401774 2.45509314 40.69428458 -3 40 C-8.86036733 38.18126531 -11.59430382 35.9082092 -15 31 C-17.01470068 26.35069075 -16.70123446 20.80673933 -14.90234375 16.171875 C-12.52555161 12.20892794 -9.63281754 9.30502244 -6.3125 6.125 C-5.70599609 5.53203125 -5.09949219 4.9390625 -4.47460938 4.328125 C-2.98985215 2.87844078 -1.49585009 1.43823532 0 0 Z M0 10 C-5.52610647 15.50386544 -5.52610647 15.50386544 -9.1875 22.25 C-8.95189896 25.70548193 -8.17963688 27.31178119 -6 30 C-3.26803238 32.21510888 -1.70765022 32.96854888 1.8125 33.125 C6.45540953 31.48632605 9.50847399 28.39404686 13 25 C11.47677573 21.37406397 9.30646461 19.09945753 6.5 16.375 C5.7059375 15.59898437 4.911875 14.82296875 4.09375 14.0234375 C3.4028125 13.35570312 2.711875 12.68796875 2 12 C1.34 11.34 0.68 10.68 0 10 Z " fill="#FFFFFF" transform="translate(1022,150)"/>
<path d="M0 0 C1.7074998 1.28062485 3.37373596 2.61767557 5 4 C5 4.66 5 5.32 5 6 C6.5507907 7.56864082 6.5507907 7.56864082 8.5625 9.1875 C21.5554786 20.28807319 21.5554786 20.28807319 22.3125 28.3125 C21.96207075 32.44756519 21.30589608 36.47232317 19 40 C17 40.80859375 17 40.80859375 15 41 C13.25 39.6875 13.25 39.6875 12 38 C12 37.34 12 36.68 12 36 C11.50371094 36.28875 11.00742187 36.5775 10.49609375 36.875 C5.81344671 39.43401774 2.45509314 40.69428458 -3 40 C-8.86036733 38.18126531 -11.59430382 35.9082092 -15 31 C-17.01470068 26.35069075 -16.70123446 20.80673933 -14.90234375 16.171875 C-12.52555161 12.20892794 -9.63281754 9.30502244 -6.3125 6.125 C-5.70599609 5.53203125 -5.09949219 4.9390625 -4.47460938 4.328125 C-2.98985215 2.87844078 -1.49585009 1.43823532 0 0 Z M0 10 C-5.52610647 15.50386544 -5.52610647 15.50386544 -9.1875 22.25 C-8.95189896 25.70548193 -8.17963688 27.31178119 -6 30 C-3.26803238 32.21510888 -1.70765022 32.96854888 1.8125 33.125 C6.45540953 31.48632605 9.50847399 28.39404686 13 25 C11.47677573 21.37406397 9.30646461 19.09945753 6.5 16.375 C5.7059375 15.59898437 4.911875 14.82296875 4.09375 14.0234375 C3.4028125 13.35570312 2.711875 12.68796875 2 12 C1.34 11.34 0.68 10.68 0 10 Z " fill="#FFFFFF" transform="translate(421,150)"/>
<path d="M0 0 C4.32799793 4.01885522 6.29213726 8.10746083 7.125 13.9375 C6.21288192 20.32232655 3.80444332 24.55401388 -1.0625 28.75 C-4.33581023 31.75752863 -4.92936611 33.96896025 -5.3125 38.375 C-5.36471652 40.06182059 -5.39636068 41.75000659 -5.375 43.4375 C-11.74090304 38.19291414 -17.51070612 32.41652678 -23.3125 26.5625 C-24.29208237 25.57789081 -25.27189837 24.593514 -26.25195312 23.609375 C-28.62860252 21.22101797 -31.00287356 18.83034788 -33.375 16.4375 C-31.74399713 11.98948014 -29.53242845 9.10763926 -26.1875 5.8125 C-25.26582031 4.87148437 -24.34414063 3.93046875 -23.39453125 2.9609375 C-15.95078039 -3.25984265 -8.65102039 -4.00510203 0 0 Z M-21.3125 11.125 C-22.34361659 12.21956992 -23.36819462 13.32052746 -24.375 14.4375 C-23.715 15.0975 -23.055 15.7575 -22.375 16.4375 C-18.70833333 20.10416667 -15.04166667 23.77083333 -11.375 27.4375 C-10.2694811 26.50159496 -9.16564547 25.56370142 -8.0625 24.625 C-7.44761719 24.10292969 -6.83273437 23.58085937 -6.19921875 23.04296875 C-5.59722656 22.51316406 -4.99523437 21.98335937 -4.375 21.4375 C-3.81296875 20.95667969 -3.2509375 20.47585937 -2.671875 19.98046875 C-0.73581513 17.67702403 -0.90571904 15.34691183 -1.0234375 12.44140625 C-1.59014799 9.21115648 -2.96486876 7.58707651 -5.375 5.4375 C-11.73611729 2.68674658 -16.94872893 6.77886033 -21.3125 11.125 Z " fill="#FFFFFF" transform="translate(983.375,208.5625)"/>
<path d="M0 0 C4.32799793 4.01885522 6.29213726 8.10746083 7.125 13.9375 C6.21288192 20.32232655 3.80444332 24.55401388 -1.0625 28.75 C-4.33581023 31.75752863 -4.92936611 33.96896025 -5.3125 38.375 C-5.36471652 40.06182059 -5.39636068 41.75000659 -5.375 43.4375 C-11.74090304 38.19291414 -17.51070612 32.41652678 -23.3125 26.5625 C-24.29208237 25.57789081 -25.27189837 24.593514 -26.25195312 23.609375 C-28.62860252 21.22101797 -31.00287356 18.83034788 -33.375 16.4375 C-31.74399713 11.98948014 -29.53242845 9.10763926 -26.1875 5.8125 C-25.26582031 4.87148437 -24.34414063 3.93046875 -23.39453125 2.9609375 C-15.95078039 -3.25984265 -8.65102039 -4.00510203 0 0 Z M-21.3125 11.125 C-22.34361659 12.21956992 -23.36819462 13.32052746 -24.375 14.4375 C-23.715 15.0975 -23.055 15.7575 -22.375 16.4375 C-18.70833333 20.10416667 -15.04166667 23.77083333 -11.375 27.4375 C-10.2694811 26.50159496 -9.16564547 25.56370142 -8.0625 24.625 C-7.44761719 24.10292969 -6.83273437 23.58085937 -6.19921875 23.04296875 C-5.59722656 22.51316406 -4.99523437 21.98335937 -4.375 21.4375 C-3.81296875 20.95667969 -3.2509375 20.47585937 -2.671875 19.98046875 C-0.73581513 17.67702403 -0.90571904 15.34691183 -1.0234375 12.44140625 C-1.59014799 9.21115648 -2.96486876 7.58707651 -5.375 5.4375 C-11.73611729 2.68674658 -16.94872893 6.77886033 -21.3125 11.125 Z " fill="#FFFFFF" transform="translate(382.375,208.5625)"/>
<path d="M0 0 C4.67539414 2.36805677 7.13535192 5.57959978 8.9296875 10.3515625 C10.26418608 15.02690924 10.38201922 19.00858562 8.23046875 23.515625 C6.52283464 25.92579927 4.43822696 27.69281448 2.2421875 29.6640625 C-1.16743156 32.85121669 -1.16743156 32.85121669 -2.65625 37.1484375 C-2.6353778 39.61135723 -2.48066367 41.92491793 -2.0703125 44.3515625 C-6.07548646 42.74783102 -8.7474223 39.93042264 -11.7109375 36.90625 C-12.23798279 36.37637482 -12.76502808 35.84649963 -13.30804443 35.30056763 C-14.98356925 33.61388425 -16.65198972 31.92036686 -18.3203125 30.2265625 C-19.45787101 29.07896862 -20.59588686 27.93182789 -21.734375 26.78515625 C-24.51834715 23.97918113 -27.2959701 21.16705786 -30.0703125 18.3515625 C-28.864463 14.96436912 -27.68739265 12.59059917 -25.13671875 10.0546875 C-24.57017578 9.48878906 -24.00363281 8.92289062 -23.41992188 8.33984375 C-22.83017578 7.76621094 -22.24042969 7.19257813 -21.6328125 6.6015625 C-20.75399414 5.71791016 -20.75399414 5.71791016 -19.85742188 4.81640625 C-14.17938507 -0.79073566 -7.89234322 -2.47194146 0 0 Z M-18.0703125 13.3515625 C-18.7303125 14.6715625 -19.3903125 15.9915625 -20.0703125 17.3515625 C-16.1103125 21.3115625 -12.1503125 25.2715625 -8.0703125 29.3515625 C-0.8355436 23.90072766 -0.8355436 23.90072766 2.3671875 15.9140625 C1.86203915 11.80071163 0.82507234 10.24694734 -2.0703125 7.3515625 C-8.99245289 3.8904923 -13.54497749 8.33700208 -18.0703125 13.3515625 Z " fill="#FFFFFF" transform="translate(701.0703125,486.6484375)"/>
<path d="M0 0 C4.67539414 2.36805677 7.13535192 5.57959978 8.9296875 10.3515625 C10.26418608 15.02690924 10.38201922 19.00858562 8.23046875 23.515625 C6.52283464 25.92579927 4.43822696 27.69281448 2.2421875 29.6640625 C-1.16743156 32.85121669 -1.16743156 32.85121669 -2.65625 37.1484375 C-2.6353778 39.61135723 -2.48066367 41.92491793 -2.0703125 44.3515625 C-6.07548646 42.74783102 -8.7474223 39.93042264 -11.7109375 36.90625 C-12.23798279 36.37637482 -12.76502808 35.84649963 -13.30804443 35.30056763 C-14.98356925 33.61388425 -16.65198972 31.92036686 -18.3203125 30.2265625 C-19.45787101 29.07896862 -20.59588686 27.93182789 -21.734375 26.78515625 C-24.51834715 23.97918113 -27.2959701 21.16705786 -30.0703125 18.3515625 C-28.864463 14.96436912 -27.68739265 12.59059917 -25.13671875 10.0546875 C-24.57017578 9.48878906 -24.00363281 8.92289062 -23.41992188 8.33984375 C-22.83017578 7.76621094 -22.24042969 7.19257813 -21.6328125 6.6015625 C-20.75399414 5.71791016 -20.75399414 5.71791016 -19.85742188 4.81640625 C-14.17938507 -0.79073566 -7.89234322 -2.47194146 0 0 Z M-18.0703125 13.3515625 C-18.7303125 14.6715625 -19.3903125 15.9915625 -20.0703125 17.3515625 C-16.1103125 21.3115625 -12.1503125 25.2715625 -8.0703125 29.3515625 C-0.8355436 23.90072766 -0.8355436 23.90072766 2.3671875 15.9140625 C1.86203915 11.80071163 0.82507234 10.24694734 -2.0703125 7.3515625 C-8.99245289 3.8904923 -13.54497749 8.33700208 -18.0703125 13.3515625 Z " fill="#FFFFFF" transform="translate(100.0703125,486.6484375)"/>
<path d="M0 0 C3.46469585 4.21381927 5 7.51731286 5 13 C3.75276357 18.56459331 1.97921399 22.84809726 -2.875 26.0625 C-7.23411597 28.30616263 -10.54049561 29.66970581 -15.453125 28.33203125 C-20.50840851 26.52129374 -24.42514412 24.93514043 -27 20 C-28.95065353 14.32448044 -29.72705305 9.39722069 -27.18359375 3.82421875 C-24.54528799 -0.24208088 -21.08515235 -3.19801833 -16.5625 -4.9375 C-9.76489974 -5.10329513 -5.30502511 -4.46104384 0 0 Z M-18.9375 5 C-21.70834355 9.03031789 -21.40691598 11.19839142 -21 16 C-19.85872377 14.85872377 -18.71776264 13.71713121 -17.578125 12.57421875 C-16.42694314 11.42588635 -15.26987213 10.28344889 -14.109375 9.14453125 C-13.47515625 8.51933594 -12.8409375 7.89414063 -12.1875 7.25 C-11.58292969 6.65703125 -10.97835938 6.0640625 -10.35546875 5.453125 C-8.88631532 4.20932075 -8.88631532 4.20932075 -9 3 C-13.25018379 2.58331531 -15.35342568 2.55977918 -18.9375 5 Z M-5.99609375 10.8984375 C-6.80175781 11.71570313 -7.60742188 12.53296875 -8.4375 13.375 C-9.24058594 14.18710938 -10.04367187 14.99921875 -10.87109375 15.8359375 C-11.92490234 16.90714844 -11.92490234 16.90714844 -13 18 C-13.66 18.66 -14.32 19.32 -15 20 C-14.67 20.33 -14.34 20.66 -14 21 C-9.87824339 20.84446201 -7.67554991 20.60626274 -4.5625 17.8125 C-2.77124015 14.58823227 -2.66214372 12.63195497 -3 9 C-4.33835087 8.88514012 -4.33835087 8.88514012 -5.99609375 10.8984375 Z " fill="#FEFEFE" transform="translate(1091,105)"/>
<path d="M0 0 C3.46469585 4.21381927 5 7.51731286 5 13 C3.75276357 18.56459331 1.97921399 22.84809726 -2.875 26.0625 C-7.23411597 28.30616263 -10.54049561 29.66970581 -15.453125 28.33203125 C-20.50840851 26.52129374 -24.42514412 24.93514043 -27 20 C-28.95065353 14.32448044 -29.72705305 9.39722069 -27.18359375 3.82421875 C-24.54528799 -0.24208088 -21.08515235 -3.19801833 -16.5625 -4.9375 C-9.76489974 -5.10329513 -5.30502511 -4.46104384 0 0 Z M-18.9375 5 C-21.70834355 9.03031789 -21.40691598 11.19839142 -21 16 C-19.85872377 14.85872377 -18.71776264 13.71713121 -17.578125 12.57421875 C-16.42694314 11.42588635 -15.26987213 10.28344889 -14.109375 9.14453125 C-13.47515625 8.51933594 -12.8409375 7.89414063 -12.1875 7.25 C-11.58292969 6.65703125 -10.97835938 6.0640625 -10.35546875 5.453125 C-8.88631532 4.20932075 -8.88631532 4.20932075 -9 3 C-13.25018379 2.58331531 -15.35342568 2.55977918 -18.9375 5 Z M-5.99609375 10.8984375 C-6.80175781 11.71570313 -7.60742188 12.53296875 -8.4375 13.375 C-9.24058594 14.18710938 -10.04367187 14.99921875 -10.87109375 15.8359375 C-11.92490234 16.90714844 -11.92490234 16.90714844 -13 18 C-13.66 18.66 -14.32 19.32 -15 20 C-14.67 20.33 -14.34 20.66 -14 21 C-9.87824339 20.84446201 -7.67554991 20.60626274 -4.5625 17.8125 C-2.77124015 14.58823227 -2.66214372 12.63195497 -3 9 C-4.33835087 8.88514012 -4.33835087 8.88514012 -5.99609375 10.8984375 Z " fill="#FEFEFE" transform="translate(490,105)"/>
<path d="M0 0 C3.92583419 3.88844529 6.39262252 7.37130919 6.6875 13 C6.33934183 18.25475932 4.54836463 22.12567012 1 26 C-3.40743386 28.90703084 -7.90266007 30.6150746 -13.203125 29.5625 C-18.29508423 28.07875029 -21.69286908 26.30929181 -25 22 C-27.50852864 16.98294273 -27.31327411 12.33936992 -26 7 C-23.25970566 1.6209037 -19.6297757 -1.477836 -14.0625 -3.8125 C-8.7365736 -4.29667513 -4.18156239 -3.323806 0 0 Z M-16.875 6.1875 C-19.00872727 9.0115508 -19.90759334 10.48854694 -20 14 C-19.01 15.485 -19.01 15.485 -18 17 C-14.23645964 12.73958774 -10.50118038 8.48151089 -7 4 C-11.35229172 3.57330473 -13.32886661 3.48935503 -16.875 6.1875 Z M-4.21484375 12.1171875 C-5.11332031 13.02726562 -6.01179688 13.93734375 -6.9375 14.875 C-7.83339844 15.77992187 -8.72929688 16.68484375 -9.65234375 17.6171875 C-10.42707031 18.40351562 -11.20179687 19.18984375 -12 20 C-12.66 20.66 -13.32 21.32 -14 22 C-9.86001651 22.32470459 -7.66000999 22.4304413 -4.125 20.125 C-1.4275772 17.4275772 -1.01429889 16.71494458 -0.9375 12.875 C-0.958125 11.92625 -0.97875 10.9775 -1 10 C-2.39018726 9.88483483 -2.39018726 9.88483483 -4.21484375 12.1171875 Z " fill="#FFFFFF" transform="translate(1114,79)"/>
<path d="M0 0 C3.92583419 3.88844529 6.39262252 7.37130919 6.6875 13 C6.33934183 18.25475932 4.54836463 22.12567012 1 26 C-3.40743386 28.90703084 -7.90266007 30.6150746 -13.203125 29.5625 C-18.29508423 28.07875029 -21.69286908 26.30929181 -25 22 C-27.50852864 16.98294273 -27.31327411 12.33936992 -26 7 C-23.25970566 1.6209037 -19.6297757 -1.477836 -14.0625 -3.8125 C-8.7365736 -4.29667513 -4.18156239 -3.323806 0 0 Z M-16.875 6.1875 C-19.00872727 9.0115508 -19.90759334 10.48854694 -20 14 C-19.01 15.485 -19.01 15.485 -18 17 C-14.23645964 12.73958774 -10.50118038 8.48151089 -7 4 C-11.35229172 3.57330473 -13.32886661 3.48935503 -16.875 6.1875 Z M-4.21484375 12.1171875 C-5.11332031 13.02726562 -6.01179688 13.93734375 -6.9375 14.875 C-7.83339844 15.77992187 -8.72929687 16.68484375 -9.65234375 17.6171875 C-10.42707031 18.40351562 -11.20179688 19.18984375 -12 20 C-12.66 20.66 -13.32 21.32 -14 22 C-9.86001651 22.32470459 -7.66000999 22.4304413 -4.125 20.125 C-1.4275772 17.4275772 -1.01429889 16.71494458 -0.9375 12.875 C-0.958125 11.92625 -0.97875 10.9775 -1 10 C-2.39018726 9.88483483 -2.39018726 9.88483483 -4.21484375 12.1171875 Z " fill="#FFFFFF" transform="translate(513,79)"/>
<path d="M0 0 C3.58686132 1.39489051 6.65669835 2.8755978 9 6 C9 6.99 9 7.98 9 9 C9.66 9 10.32 9 11 9 C12.44836189 13.34508568 12.52342771 17.45891095 12 22 C10.1875 25.4375 10.1875 25.4375 8 28 C7.525625 28.5775 7.05125 29.155 6.5625 29.75 C2.73236491 32.81410807 -1.15963081 33.40631172 -6.01953125 33.2421875 C-11.63514363 32.55546567 -15.38213413 29.28287743 -18.796875 25.0234375 C-20.91466391 21.4617016 -21.29786802 18.09023645 -21 14 C-19.33305617 7.85314464 -16.02155429 4.60583898 -11 1 C-7.54670602 -0.72664699 -3.78301996 -0.36301707 0 0 Z M-12 11 C-13.4783226 13.95664519 -13.06032783 16.74229737 -13 20 C-8.81576108 16.49102731 -4.80411834 12.91939465 -1 9 C-1.33 8.34 -1.66 7.68 -2 7 C-6.6810106 6.46502736 -8.63175201 7.8188769 -12 11 Z M1.78515625 15.1171875 C0.88667969 16.02726562 -0.01179687 16.93734375 -0.9375 17.875 C-1.83339844 18.77992188 -2.72929688 19.68484375 -3.65234375 20.6171875 C-4.42707031 21.40351563 -5.20179688 22.18984375 -6 23 C-6.66 23.66 -7.32 24.32 -8 25 C-4.63111895 26.0899321 -3.18976004 26.07069492 0.1875 24.8125 C3.09226764 22.94053863 4.06788396 22.26240616 5 19 C5.16724737 15.83304044 5.16724737 15.83304044 5 13 C3.60981274 12.88483483 3.60981274 12.88483483 1.78515625 15.1171875 Z " fill="#FEFEFE" transform="translate(804,380)"/>
<path d="M0 0 C3.58686132 1.39489051 6.65669835 2.8755978 9 6 C9 6.99 9 7.98 9 9 C9.66 9 10.32 9 11 9 C12.44836189 13.34508568 12.52342771 17.45891095 12 22 C10.1875 25.4375 10.1875 25.4375 8 28 C7.525625 28.5775 7.05125 29.155 6.5625 29.75 C2.73236491 32.81410807 -1.15963081 33.40631172 -6.01953125 33.2421875 C-11.63514363 32.55546567 -15.38213413 29.28287743 -18.796875 25.0234375 C-20.91466391 21.4617016 -21.29786802 18.09023645 -21 14 C-19.33305617 7.85314464 -16.02155429 4.60583898 -11 1 C-7.54670602 -0.72664699 -3.78301996 -0.36301707 0 0 Z M-12 11 C-13.4783226 13.95664519 -13.06032783 16.74229737 -13 20 C-8.81576108 16.49102731 -4.80411834 12.91939465 -1 9 C-1.33 8.34 -1.66 7.68 -2 7 C-6.6810106 6.46502736 -8.63175201 7.8188769 -12 11 Z M1.78515625 15.1171875 C0.88667969 16.02726562 -0.01179688 16.93734375 -0.9375 17.875 C-1.83339844 18.77992188 -2.72929687 19.68484375 -3.65234375 20.6171875 C-4.42707031 21.40351563 -5.20179688 22.18984375 -6 23 C-6.66 23.66 -7.32 24.32 -8 25 C-4.63111895 26.0899321 -3.18976004 26.07069492 0.1875 24.8125 C3.09226764 22.94053863 4.06788396 22.26240616 5 19 C5.16724737 15.83304044 5.16724737 15.83304044 5 13 C3.60981274 12.88483483 3.60981274 12.88483483 1.78515625 15.1171875 Z " fill="#FEFEFE" transform="translate(203,380)"/>
<path d="M0 0 C4.48195798 2.47641258 7.00928056 5.7579631 8.875 10.5 C9.96547981 16.00482597 8.6036701 20.67934949 5.875 25.5 C2.06788525 29.52555576 -1.28959615 31.37763974 -6.875 31.75 C-11.17715944 31.67882457 -14.33554797 30.61334825 -18.125 28.5 C-20.4375 26.0625 -20.4375 26.0625 -22.125 23.5 C-22.5375 22.901875 -22.95 22.30375 -23.375 21.6875 C-24.96161022 17.05988687 -24.60021319 12.89768586 -23.0625 8.375 C-17.50951232 0.1350828 -9.79018681 -4.20108205 0 0 Z M-10.625 6 C-13.99374161 8.02124497 -15.37342045 9.9968409 -17.125 13.5 C-16.99634188 16.78642465 -16.99634188 16.78642465 -16.125 19.5 C-15.444375 18.819375 -14.76375 18.13875 -14.0625 17.4375 C-10.75 14.125 -7.4375 10.8125 -4.125 7.5 C-7.17194349 5.72252165 -7.17194349 5.72252165 -10.625 6 Z M-1.3046875 13.6171875 C-3.09641454 15.45046183 -4.88808155 17.28379483 -6.6796875 19.1171875 C-9.125 21.5 -9.125 21.5 -12.125 23.5 C-7.13692929 24.58269462 -7.13692929 24.58269462 -2.3125 23.3125 C0.01279151 21.38582989 0.97518782 20.36303876 1.875 17.5 C2.04224737 14.33304044 2.04224737 14.33304044 1.875 11.5 C0.48810754 11.38387535 0.48810754 11.38387535 -1.3046875 13.6171875 Z " fill="#FFFFFF" transform="translate(231.125,356.5)"/>
<path d="M0 0 C2.98918766 1.3533465 5.16362575 2.89710383 7.5625 5.125 C10.65267544 7.90672909 13.83055683 10.32398878 17.25 12.6875 C22.20022897 16.21651205 26.39657294 20.15147556 30.58886719 24.52416992 C33.10183625 27.13986211 35.65868341 29.59456092 38.42578125 31.94140625 C44.58345996 37.26109662 50.25224557 43.10348613 55.99365234 48.86328125 C58.01936102 50.89441285 60.05044059 52.92006599 62.08203125 54.9453125 C63.36750882 56.23144976 64.65267675 57.51789659 65.9375 58.8046875 C66.54674316 59.41190643 67.15598633 60.01912537 67.78369141 60.64474487 C72 64.88500977 72 64.88500977 72 66 C61.50875332 67.06949602 61.50875332 67.06949602 58.1484375 64.6875 C57.18730646 63.48474384 56.27217005 62.24423228 55.3984375 60.9765625 C53.90874678 58.87102199 52.35746654 57.45511513 50.375 55.8125 C46.66713608 52.65580505 43.19514327 49.31227765 39.75 45.875 C38.98888916 45.12053589 38.98888916 45.12053589 38.21240234 44.35083008 C35.96547446 42.09536579 33.85767114 39.82163191 31.87109375 37.33203125 C30.14067505 35.17532986 28.44660704 33.55289337 26.3125 31.8125 C19.54586551 26.00531368 13.72894977 19.60568596 9.2578125 11.8828125 C7.36290808 9.04634067 4.96028449 6.83756471 2.453125 4.54296875 C1 3 1 3 0 0 Z " fill="#FFFFFF" transform="translate(608,609)"/>
<path d="M0 0 C2.98918766 1.3533465 5.16362575 2.89710383 7.5625 5.125 C10.65267544 7.90672909 13.83055683 10.32398878 17.25 12.6875 C22.20022897 16.21651205 26.39657294 20.15147556 30.58886719 24.52416992 C33.10183625 27.13986211 35.65868341 29.59456092 38.42578125 31.94140625 C44.58345996 37.26109662 50.25224557 43.10348613 55.99365234 48.86328125 C58.01936102 50.89441285 60.05044059 52.92006599 62.08203125 54.9453125 C63.36750882 56.23144976 64.65267675 57.51789659 65.9375 58.8046875 C66.54674316 59.41190643 67.15598633 60.01912537 67.78369141 60.64474487 C72 64.88500977 72 64.88500977 72 66 C61.50875332 67.06949602 61.50875332 67.06949602 58.1484375 64.6875 C57.18730646 63.48474384 56.27217005 62.24423228 55.3984375 60.9765625 C53.90874678 58.87102199 52.35746654 57.45511513 50.375 55.8125 C46.66713608 52.65580505 43.19514327 49.31227765 39.75 45.875 C38.98888916 45.12053589 38.98888916 45.12053589 38.21240234 44.35083008 C35.96547446 42.09536579 33.85767114 39.82163191 31.87109375 37.33203125 C30.14067505 35.17532986 28.44660704 33.55289337 26.3125 31.8125 C19.54586551 26.00531368 13.72894977 19.60568596 9.2578125 11.8828125 C7.36290808 9.04634067 4.96028449 6.83756471 2.453125 4.54296875 C1 3 1 3 0 0 Z " fill="#FFFFFF" transform="translate(7,609)"/>
<path d="M0 0 C4.41026155 3.56424335 8.30409431 7.66671038 12.19921875 11.77734375 C10.82938372 14.93850151 10.21015495 15.77005295 7.19921875 17.77734375 C-0.26580751 11.34964123 -0.26580751 11.34964123 -3.48828125 7.90234375 C-6.09762623 5.50456729 -7.26747603 4.77734375 -10.80078125 4.77734375 C-14.08334081 5.62685219 -14.08334081 5.62685219 -16.80078125 7.77734375 C-18.54467642 11.08919193 -18.54467642 11.08919193 -18.80078125 14.77734375 C-16.29252353 20.05923799 -12.03015367 23.48375236 -7.78515625 27.375 C-5.80078125 29.77734375 -5.80078125 29.77734375 -5.87890625 31.9609375 C-6.80078125 33.77734375 -6.80078125 33.77734375 -8.80078125 35.77734375 C-13.0452506 35.64674469 -15.56271645 32.49448239 -18.36328125 29.65234375 C-18.84474609 29.19085938 -19.32621094 28.729375 -19.82226562 28.25390625 C-24.26989724 23.80015685 -26.51380509 19.50361725 -27.17578125 13.21484375 C-26.45354491 6.59434399 -23.50190576 3.14004719 -18.6171875 -1.0234375 C-12.55130348 -5.02822544 -5.7281891 -3.88256432 0 0 Z " fill="#FEFEFE" transform="translate(728.80078125,464.22265625)"/>
<path d="M0 0 C4.41026155 3.56424335 8.30409431 7.66671038 12.19921875 11.77734375 C10.82938372 14.93850151 10.21015495 15.77005295 7.19921875 17.77734375 C-0.26580751 11.34964123 -0.26580751 11.34964123 -3.48828125 7.90234375 C-6.09762623 5.50456729 -7.26747603 4.77734375 -10.80078125 4.77734375 C-14.08334081 5.62685219 -14.08334081 5.62685219 -16.80078125 7.77734375 C-18.54467642 11.08919193 -18.54467642 11.08919193 -18.80078125 14.77734375 C-16.29252353 20.05923799 -12.03015367 23.48375236 -7.78515625 27.375 C-5.80078125 29.77734375 -5.80078125 29.77734375 -5.87890625 31.9609375 C-6.80078125 33.77734375 -6.80078125 33.77734375 -8.80078125 35.77734375 C-13.0452506 35.64674469 -15.56271645 32.49448239 -18.36328125 29.65234375 C-18.84474609 29.19085938 -19.32621094 28.729375 -19.82226562 28.25390625 C-24.26989724 23.80015685 -26.51380509 19.50361725 -27.17578125 13.21484375 C-26.45354491 6.59434399 -23.50190576 3.14004719 -18.6171875 -1.0234375 C-12.55130348 -5.02822544 -5.7281891 -3.88256432 0 0 Z " fill="#FEFEFE" transform="translate(127.80078125,464.22265625)"/>
<path d="M0 0 C3.20851874 1.8528066 5.50229504 4.28950881 8 7 C9.49733118 8.4818682 10.99727969 9.96109704 12.5 11.4375 C13.66923328 12.62247296 14.83687329 13.80903249 16 15 C15.06822137 17.4070948 14.45686659 18.72024469 12.2265625 20.0859375 C9.14144218 19.96686268 7.89940803 18.37974914 5.8359375 16.2265625 C5.11277344 15.43378906 5.11277344 15.43378906 4.375 14.625 C-0.08871148 9.54257817 -0.08871148 9.54257817 -6.375 7.6875 C-9.98945176 7.69046991 -9.98945176 7.69046991 -12.375 9.6875 C-14.23688689 12.33710827 -14.92278899 13.75713747 -15 17 C-12.54928127 22.96696735 -8.68185534 26.37323287 -3.984375 30.6328125 C-2 33 -2 33 -1.953125 35.1796875 C-3.27357795 37.47569897 -4.63682931 37.91742685 -7 39 C-9.31260674 36.83378929 -11.59572714 34.63871557 -13.875 32.4375 C-14.52597656 31.82841797 -15.17695312 31.21933594 -15.84765625 30.59179688 C-20.44926627 26.10878505 -22.76753819 22.40902576 -23.1171875 15.77734375 C-22.36346363 10.05147371 -20.36732938 6.08038036 -15.9375 2.1875 C-11.05578256 -0.80452037 -5.52813208 -0.91123056 0 0 Z " fill="#FEFEFE" transform="translate(1004,182)"/>
<path d="M0 0 C3.20851874 1.8528066 5.50229504 4.28950881 8 7 C9.49733118 8.4818682 10.99727969 9.96109704 12.5 11.4375 C13.66923328 12.62247296 14.83687329 13.80903249 16 15 C15.06822137 17.4070948 14.45686659 18.72024469 12.2265625 20.0859375 C9.14144218 19.96686268 7.89940803 18.37974914 5.8359375 16.2265625 C5.11277344 15.43378906 5.11277344 15.43378906 4.375 14.625 C-0.08871148 9.54257817 -0.08871148 9.54257817 -6.375 7.6875 C-9.98945176 7.69046991 -9.98945176 7.69046991 -12.375 9.6875 C-14.23688689 12.33710827 -14.92278899 13.75713747 -15 17 C-12.54928127 22.96696735 -8.68185534 26.37323287 -3.984375 30.6328125 C-2 33 -2 33 -1.953125 35.1796875 C-3.27357795 37.47569897 -4.63682931 37.91742685 -7 39 C-9.31260674 36.83378929 -11.59572714 34.63871557 -13.875 32.4375 C-14.52597656 31.82841797 -15.17695313 31.21933594 -15.84765625 30.59179688 C-20.44926627 26.10878505 -22.76753819 22.40902576 -23.1171875 15.77734375 C-22.36346363 10.05147371 -20.36732938 6.08038036 -15.9375 2.1875 C-11.05578256 -0.80452037 -5.52813208 -0.91123056 0 0 Z " fill="#FEFEFE" transform="translate(403,182)"/>
<path d="M0 0 C2.45084807 1.0975734 2.90109942 2.38008627 3.84863281 4.82788086 C2.19863281 6.47788086 0.54863281 8.12788086 -1.15136719 9.82788086 C-0.67828125 10.2287793 -0.20519531 10.62967773 0.28222656 11.04272461 C2.49530253 12.94519342 4.67584652 14.87949708 6.84863281 16.82788086 C7.69683594 17.58456055 8.54503906 18.34124023 9.41894531 19.12084961 C10.65257812 20.27520508 10.65257812 20.27520508 11.91113281 21.45288086 C12.68585938 22.16702148 13.46058594 22.88116211 14.25878906 23.61694336 C15.84863281 25.82788086 15.84863281 25.82788086 15.84472656 28.47631836 C14.62794719 31.34887203 13.61478747 31.61017336 10.84863281 32.82788086 C8.19875016 30.20694164 5.55443138 27.58045888 2.91113281 24.95288086 C2.15638672 24.20651367 1.40164063 23.46014648 0.62402344 22.69116211 C-0.09462891 21.97573242 -0.81328125 21.26030273 -1.55371094 20.52319336 C-2.21878662 19.86335449 -2.8838623 19.20351562 -3.5690918 18.52368164 C-5.15136719 16.82788086 -5.15136719 16.82788086 -6.15136719 14.82788086 C-7.80136719 16.47788086 -9.45136719 18.12788086 -11.15136719 19.82788086 C-14.31252494 18.45804583 -15.14407638 17.83881706 -17.15136719 14.82788086 C-14.75514691 12.2869075 -12.33139202 9.77401093 -9.90136719 7.26538086 C-9.21945312 6.54157227 -8.53753906 5.81776367 -7.83496094 5.07202148 C-7.17109375 4.39204102 -6.50722656 3.71206055 -5.82324219 3.01147461 C-5.21577148 2.37781982 -4.60830078 1.74416504 -3.98242188 1.09130859 C-2.15136719 -0.17211914 -2.15136719 -0.17211914 0 0 Z " fill="#FFFFFF" transform="translate(1040.1513671875,134.172119140625)"/>
<path d="M0 0 C2.45084807 1.0975734 2.90109942 2.38008627 3.84863281 4.82788086 C2.19863281 6.47788086 0.54863281 8.12788086 -1.15136719 9.82788086 C-0.67828125 10.2287793 -0.20519531 10.62967773 0.28222656 11.04272461 C2.49530253 12.94519342 4.67584652 14.87949708 6.84863281 16.82788086 C7.69683594 17.58456055 8.54503906 18.34124023 9.41894531 19.12084961 C10.65257812 20.27520508 10.65257812 20.27520508 11.91113281 21.45288086 C12.68585938 22.16702148 13.46058594 22.88116211 14.25878906 23.61694336 C15.84863281 25.82788086 15.84863281 25.82788086 15.84472656 28.47631836 C14.62794719 31.34887203 13.61478747 31.61017336 10.84863281 32.82788086 C8.19875016 30.20694164 5.55443138 27.58045888 2.91113281 24.95288086 C2.15638672 24.20651367 1.40164063 23.46014648 0.62402344 22.69116211 C-0.09462891 21.97573242 -0.81328125 21.26030273 -1.55371094 20.52319336 C-2.21878662 19.86335449 -2.8838623 19.20351562 -3.5690918 18.52368164 C-5.15136719 16.82788086 -5.15136719 16.82788086 -6.15136719 14.82788086 C-7.80136719 16.47788086 -9.45136719 18.12788086 -11.15136719 19.82788086 C-14.31252494 18.45804583 -15.14407638 17.83881706 -17.15136719 14.82788086 C-14.75514691 12.2869075 -12.33139202 9.77401093 -9.90136719 7.26538086 C-9.21945312 6.54157227 -8.53753906 5.81776367 -7.83496094 5.07202148 C-7.17109375 4.39204102 -6.50722656 3.71206055 -5.82324219 3.01147461 C-5.21577148 2.37781982 -4.60830078 1.74416504 -3.98242188 1.09130859 C-2.15136719 -0.17211914 -2.15136719 -0.17211914 0 0 Z " fill="#FFFFFF" transform="translate(439.1513671875,134.172119140625)"/>
<path d="M0 0 C1.9375 0.75 1.9375 0.75 4 2 C4.8125 4 4.8125 4 5 6 C4.67 6.66 4.34 7.32 4 8 C3.29361421 13.11383133 3.29361421 13.11383133 5.12890625 17.71289062 C6.68400191 19.32686067 8.29353526 20.79719894 10 22.25 C12.1121528 24.10526935 14.04624499 25.96483853 16 28 C16 29.32 16 30.64 16 32 C13.5 33.75 13.5 33.75 11 35 C9.05611304 33.11036105 7.1199654 31.21376065 5.1875 29.3125 C4.64029297 28.78205078 4.09308594 28.25160156 3.52929688 27.70507812 C-1.53830639 22.69890036 -4.45976756 18.50194573 -5.07421875 11.28515625 C-4.9272541 6.76019217 -3.2116683 3.2116683 0 0 Z " fill="#FFFFFF" transform="translate(1053,119)"/>
<path d="M0 0 C1.9375 0.75 1.9375 0.75 4 2 C4.8125 4 4.8125 4 5 6 C4.67 6.66 4.34 7.32 4 8 C3.29361421 13.11383133 3.29361421 13.11383133 5.12890625 17.71289062 C6.68400191 19.32686067 8.29353526 20.79719894 10 22.25 C12.1121528 24.10526935 14.04624499 25.96483853 16 28 C16 29.32 16 30.64 16 32 C13.5 33.75 13.5 33.75 11 35 C9.05611304 33.11036105 7.1199654 31.21376065 5.1875 29.3125 C4.64029297 28.78205078 4.09308594 28.25160156 3.52929688 27.70507812 C-1.53830639 22.69890036 -4.45976756 18.50194573 -5.07421875 11.28515625 C-4.9272541 6.76019217 -3.2116683 3.2116683 0 0 Z " fill="#FFFFFF" transform="translate(452,119)"/>
<path d="M0 0 C3.72 1.44 3.72 1.44 4.875 3.75 C5 6 5 6 3.9375 8.9375 C2.75267468 11.86715192 2.75267468 11.86715192 3.5859375 14.34375 C5.70412034 18.322657 8.95906617 21.01690173 12.27539062 23.98242188 C13.76171875 25.37890625 13.76171875 25.37890625 16 28 C15.94008192 31.08850457 15.19873028 31.80126972 13 34 C7.85304473 33.74487075 4.68794284 29.1497948 1.3515625 25.6953125 C-2.62631657 21.13594945 -4.71192531 17.38690461 -5.4375 11.375 C-4.8299991 6.68856447 -3.34661298 3.34661298 0 0 Z " fill="#FFFFFF" transform="translate(774,399)"/>
<path d="M0 0 C3.72 1.44 3.72 1.44 4.875 3.75 C5 6 5 6 3.9375 8.9375 C2.75267468 11.86715192 2.75267468 11.86715192 3.5859375 14.34375 C5.70412034 18.322657 8.95906617 21.01690173 12.27539062 23.98242188 C13.76171875 25.37890625 13.76171875 25.37890625 16 28 C15.94008192 31.08850457 15.19873028 31.80126972 13 34 C7.85304473 33.74487075 4.68794284 29.1497948 1.3515625 25.6953125 C-2.62631657 21.13594945 -4.71192531 17.38690461 -5.4375 11.375 C-4.8299991 6.68856447 -3.34661298 3.34661298 0 0 Z " fill="#FFFFFF" transform="translate(173,399)"/>
<path d="M0 0 C4.62 0 9.24 0 14 0 C14 6.671475 12.92127467 8.96607715 9 14 C6.29845635 16.55935714 3.47433926 18.32200213 0.25 20.125 C-3.04314457 21.62690809 -3.04314457 21.62690809 -4 24 C-4.51257309 29.04030201 -4.50239196 31.83566539 -1.5 36 C-0.675 36.99 0.15 37.98 1 39 C-2.39474666 37.59527724 -4.21164245 36.23607557 -6 33 C-8.12893133 25.41568215 -5.44541927 20.79208448 -2 14 C-0.99740493 10.99221479 -0.69685358 8.46179353 -0.4375 5.3125 C-0.293125 3.559375 -0.14875 1.80625 0 0 Z " fill="#272324" transform="translate(903,292)"/>
<path d="M0 0 C4.62 0 9.24 0 14 0 C14 6.671475 12.92127467 8.96607715 9 14 C6.29845635 16.55935714 3.47433926 18.32200213 0.25 20.125 C-3.04314457 21.62690809 -3.04314457 21.62690809 -4 24 C-4.51257309 29.04030201 -4.50239196 31.83566539 -1.5 36 C-0.675 36.99 0.15 37.98 1 39 C-2.39474666 37.59527724 -4.21164245 36.23607557 -6 33 C-8.12893133 25.41568215 -5.44541927 20.79208448 -2 14 C-0.99740493 10.99221479 -0.69685358 8.46179353 -0.4375 5.3125 C-0.293125 3.559375 -0.14875 1.80625 0 0 Z " fill="#272324" transform="translate(302,292)"/>
<path d="M0 0 C3.24247482 1.20810355 5.31095786 2.91203872 7.1875 5.875 C6.92628728 8.83541078 5.54451995 10.70445273 3.59375 12.8828125 C2 14 2 14 -1.5 13.6875 C-2.655 13.460625 -3.81 13.23375 -5 13 C-7.62387135 14.39092892 -7.62387135 14.39092892 -10 16 C-12.8125 16.1875 -12.8125 16.1875 -15 16 C-14.51668656 11.65017907 -13.30159566 9.82993914 -10 7 C-8.68441297 5.97676564 -7.35622245 4.96873032 -6 4 C-11.36090593 3.46326107 -11.36090593 3.46326107 -16 5.5 C-16.495 6.2425 -16.495 6.2425 -17 7 C-17.66 6.67 -18.32 6.34 -19 6 C-12.48676421 0.47790879 -8.75204783 -0.89985844 0 0 Z " fill="#BFBEBF" transform="translate(830,356)"/>
<path d="M0 0 C5.28 0 10.56 0 16 0 C15.505 1.505625 15.01 3.01125 14.5 4.5625 C12.96797076 9.69588706 11.89623518 14.30957325 14 19.4375 C14.33 19.953125 14.66 20.46875 15 21 C8.94473151 19.16507016 4.50125823 15.27610119 1.0625 10.0625 C0 7 0 7 0 0 Z " fill="#252122" transform="translate(878,292)"/>
<path d="M0 0 C5.28 0 10.56 0 16 0 C15.505 1.505625 15.01 3.01125 14.5 4.5625 C12.96797076 9.69588706 11.89623518 14.30957325 14 19.4375 C14.33 19.953125 14.66 20.46875 15 21 C8.94473151 19.16507016 4.50125823 15.27610119 1.0625 10.0625 C0 7 0 7 0 0 Z " fill="#252122" transform="translate(277,292)"/>
<path d="M0 0 C9.15065131 2.62583907 15.55745055 9.34641236 22.046875 16.046875 C24.67749352 18.67749352 27.48674348 21.06756774 30.3359375 23.45703125 C32 25 32 25 34 28 C30.04179141 27.43454163 27.3340947 26.19097652 24 24 C24.66 25.32 25.32 26.64 26 28 C24.125 27.8125 24.125 27.8125 22 27 C21.28752268 25.3523962 20.62599617 23.68236471 20 22 C18.68612831 20.64748503 17.35573748 19.31054623 16 18 C16 17.34 16 16.68 16 16 C15.443125 15.79375 14.88625 15.5875 14.3125 15.375 C11.71542816 13.83079512 10.15708196 11.9399031 8.296875 9.5859375 C6.84044624 7.75106832 6.84044624 7.75106832 4.3125 5.3125 C2 3 2 3 0 0 Z " fill="#3F3B3C" transform="translate(343,343)"/>
<path d="M0 0 C0.66 0.66 1.32 1.32 2 2 C1.45730469 2.21914063 0.91460938 2.43828125 0.35546875 2.6640625 C-3.66132362 4.44447858 -5.63176714 5.4016216 -8 9.25 C-8.33 10.1575 -8.66 11.065 -9 12 C-11.97 11.505 -11.97 11.505 -15 11 C-15.33 11.99 -15.66 12.98 -16 14 C-15.88322892 7.2272774 -15.88322892 7.2272774 -13.65625 4.1328125 C-9.22399457 -0.07783016 -6.00981361 -0.81488998 0 0 Z " fill="#C4C3C3" transform="translate(824,359)"/>
<path d="M0 0 C0 3.66012671 -0.69189012 4.14932109 -3.1875 6.6875 C-6.54062764 9.93158284 -6.54062764 9.93158284 -9.9375 10.4375 C-10.9584375 10.2209375 -10.9584375 10.2209375 -12 10 C-11.52048204 5.68433833 -10.29764982 3.7980059 -7 1 C-4.53721199 -0.231394 -2.7204945 -0.07159196 0 0 Z " fill="#252223" transform="translate(827,362)"/>
<path d="M0 0 C1.0828125 1.11375 1.0828125 1.11375 2.1875 2.25 C4.90711047 5.01267269 4.90711047 5.01267269 7.8125 7.1875 C8.534375 7.785625 9.25625 8.38375 10 9 C10 9.66 10 10.32 10 11 C10.99 11.33 11.98 11.66 13 12 C14.75 13.875 14.75 13.875 16 16 C15.67 16.99 15.34 17.98 15 19 C3.29384966 8.81093394 3.29384966 8.81093394 -1 2 C-0.67 1.34 -0.34 0.68 0 0 Z " fill="#353132" transform="translate(349,350)"/>
<path d="M0 0 C6.24241121 2.97933262 12.39147983 6.7903685 17 12 C12.25 11.125 12.25 11.125 10 10 C10.33 10.99 10.66 11.98 11 13 C10.01 13 9.02 13 8 13 C7.63648438 12.20335937 7.63648438 12.20335937 7.265625 11.390625 C5.29310278 7.23315508 3.48314433 4.1099503 0 1 C0 0.67 0 0.34 0 0 Z " fill="#4B4748" transform="translate(941,340)"/>
<path d="M0 0 C4.58403404 2.07489174 7.60105209 5.23331797 11.125 8.75 C12.07439453 9.66265625 12.07439453 9.66265625 13.04296875 10.59375 C16.63811862 14.16600083 18.85897933 16.90448302 20 22 C18.125 21.8125 18.125 21.8125 16 21 C15.28752268 19.3523962 14.62599617 17.68236471 14 16 C12.68612831 14.64748503 11.35573748 13.31054623 10 12 C10 11.34 10 10.68 10 10 C9.40703125 9.75507813 8.8140625 9.51015625 8.203125 9.2578125 C5.63301274 7.79047891 4.45470034 6.27707775 2.75 3.875 C1.96882813 2.78832031 1.96882813 2.78832031 1.171875 1.6796875 C0.78515625 1.12539063 0.3984375 0.57109375 0 0 Z " fill="#989697" transform="translate(349,349)"/>
<path d="M0 0 C-1.44245971 3.36573933 -3.083468 5.75010389 -6 8 C-8.92617631 7.78588954 -11.21433539 6.92855487 -14 6 C-12.61447798 4.98576166 -11.21605712 3.98912998 -9.8125 3 C-9.03519531 2.443125 -8.25789062 1.88625 -7.45703125 1.3125 C-4.71663363 -0.151369 -3.05899163 -0.26080213 0 0 Z " fill="#E0DFDF" transform="translate(837,362)"/>
<path d="M0 0 C0.66 0 1.32 0 2 0 C3.76462683 3.08809695 4 4.23312136 4 8 C1.03 8 -1.94 8 -5 8 C-3.47246003 4.94492007 -2.19136095 2.55658777 0 0 Z " fill="#F8F8F8" transform="translate(899,285)"/>
<path d="M0 0 C0.66 0 1.32 0 2 0 C3.76462683 3.08809695 4 4.23312136 4 8 C1.03 8 -1.94 8 -5 8 C-3.47246003 4.94492007 -2.19136095 2.55658777 0 0 Z " fill="#F8F8F8" transform="translate(298,285)"/>
<path d="M0 0 C1.50433594 0.01353516 1.50433594 0.01353516 3.0390625 0.02734375 C3.80992187 0.03894531 4.58078125 0.05054688 5.375 0.0625 C5.045 0.7225 4.715 1.3825 4.375 2.0625 C1.08789494 2.67373854 -2.20213685 3.02308215 -5.5234375 3.40234375 C-8.66548242 4.07111654 -9.72470464 4.5538367 -11.625 7.0625 C-12.285 6.7325 -12.945 6.4025 -13.625 6.0625 C-6.38676471 -0.07426471 -6.38676471 -0.07426471 0 0 Z " fill="#AFAEAE" transform="translate(824.625,355.9375)"/>
<path d="M0 0 C-1.29299694 2.88437779 -2.65941363 4.87219421 -5 7 C-5.33 6.01 -5.66 5.02 -6 4 C-6.66 3.34 -7.32 2.68 -8 2 C-4.77208445 -0.1519437 -3.71599191 -0.20086443 0 0 Z " fill="#D5D4D4" transform="translate(837,362)"/>
<path d="M0 0 C3.21043882 1.38188453 5.04936365 2.92421903 7.25 5.625 C8.03117187 6.57246094 8.03117187 6.57246094 8.828125 7.5390625 C9.40820312 8.26222656 9.40820312 8.26222656 10 9 C7 9 7 9 5.17578125 7.28515625 C4.56089844 6.55167969 3.94601562 5.81820313 3.3125 5.0625 C2.68988281 4.33160156 2.06726563 3.60070312 1.42578125 2.84765625 C0 1 0 1 0 0 Z " fill="#726F70" transform="translate(349,349)"/>
<path d="M0 0 C1.98 0 3.96 0 6 0 C5.67 1.32 5.34 2.64 5 4 C3.35 3.67 1.7 3.34 0 3 C-0.33 3.99 -0.66 4.98 -1 6 C-0.67 4.02 -0.34 2.04 0 0 Z " fill="#DFDEDF" transform="translate(809,367)"/>
<path d="M0 0 C1.875 0.625 1.875 0.625 4 2 C5.25 5.125 5.25 5.125 6 8 C5.01 8 4.02 8 3 8 C0 1.125 0 1.125 0 0 Z " fill="#686566" transform="translate(946,345)"/>
<path d="M0 0 C1.65 1.65 3.3 3.3 5 5 C4.67 5.99 4.34 6.98 4 8 C2.35 6.35 0.7 4.7 -1 3 C-0.67 2.01 -0.34 1.02 0 0 Z " fill="#4D494A" transform="translate(360,361)"/>
<path d="" fill="#FFFFFF" transform="translate(0,0)"/>
<path d="" fill="#FFFFFF" transform="translate(0,0)"/>
<path d="" fill="#FFFFFF" transform="translate(0,0)"/>
<path d="" fill="#FFFFFF" transform="translate(0,0)"/>
<path d="" fill="#FFFFFF" transform="translate(0,0)"/>
<path d="" fill="#FFFFFF" transform="translate(0,0)"/>
</svg>
